<svg width="72" height="72" viewBox="0 0 72 72" fill="none" xmlns="http://www.w3.org/2000/svg">
<path d="M33 39H39V45H33M33 27H39V33H33M33 51H39C40.5913 51 42.1174 50.3679 43.2426 49.2426C44.3679 48.1174 45 46.5913 45 45V40.5C45 39.3065 44.5259 38.1619 43.682 37.318C42.8381 36.4741 41.6935 36 40.5 36C41.6935 36 42.8381 35.5259 43.682 34.682C44.5259 33.8381 45 32.6935 45 31.5V27C45 25.4087 44.3679 23.8826 43.2426 22.7574C42.1174 21.6321 40.5913 21 39 21H33C31.4087 21 29.8826 21.6321 28.7574 22.7574C27.6321 23.8826 27 25.4087 27 27V31.5C27 32.6935 27.4741 33.8381 28.318 34.682C29.1619 35.5259 30.3065 36 31.5 36C30.3065 36 29.1619 36.4741 28.318 37.318C27.4741 38.1619 27 39.3065 27 40.5V45C27 46.5913 27.6321 48.1174 28.7574 49.2426C29.8826 50.3679 31.4087 51 33 51ZM36 3C17.76 3 3 17.76 3 36C3 54.24 17.76 69 36 69C54.24 69 69 54.24 69 36C69 17.76 54.24 3 36 3ZM36 57C30.4305 57 25.089 54.7875 21.1508 50.8492C17.2125 46.911 15 41.5695 15 36C15 30.4305 17.2125 25.089 21.1508 21.1508C25.089 17.2125 30.4305 15 36 15C41.5695 15 46.911 17.2125 50.8492 21.1508C54.7875 25.089 57 30.4305 57 36C57 41.5695 54.7875 46.911 50.8492 50.8492C46.911 54.7875 41.5695 57 36 57Z" fill="black"/>
</svg>
