<svg width="72" height="72" viewBox="0 0 72 72" fill="none" xmlns="http://www.w3.org/2000/svg">
<path d="M67.5 31.5H64.4625L56.6494 13.9219C56.2958 13.1266 55.7192 12.4509 54.9893 11.9767C54.2595 11.5024 53.4079 11.25 52.5375 11.25H19.4625C18.5921 11.25 17.7405 11.5024 17.0107 11.9767C16.2808 12.4509 15.7042 13.1266 15.3506 13.9219L7.5375 31.5H4.5C3.90326 31.5 3.33097 31.7371 2.90901 32.159C2.48705 32.581 2.25 33.1533 2.25 33.75C2.25 34.3467 2.48705 34.919 2.90901 35.341C3.33097 35.7629 3.90326 36 4.5 36H6.75V58.5C6.75 59.6935 7.22411 60.8381 8.06802 61.682C8.91193 62.5259 10.0565 63 11.25 63H18C19.1935 63 20.3381 62.5259 21.182 61.682C22.0259 60.8381 22.5 59.6935 22.5 58.5V54H49.5V58.5C49.5 59.6935 49.9741 60.8381 50.818 61.682C51.6619 62.5259 52.8065 63 54 63H60.75C61.9435 63 63.0881 62.5259 63.932 61.682C64.7759 60.8381 65.25 59.6935 65.25 58.5V36H67.5C68.0967 36 68.669 35.7629 69.091 35.341C69.5129 34.919 69.75 34.3467 69.75 33.75C69.75 33.1533 69.5129 32.581 69.091 32.159C68.669 31.7371 68.0967 31.5 67.5 31.5ZM22.5 45H18C17.4033 45 16.831 44.7629 16.409 44.341C15.9871 43.919 15.75 43.3467 15.75 42.75C15.75 42.1533 15.9871 41.581 16.409 41.159C16.831 40.7371 17.4033 40.5 18 40.5H22.5C23.0967 40.5 23.669 40.7371 24.091 41.159C24.5129 41.581 24.75 42.1533 24.75 42.75C24.75 43.3467 24.5129 43.919 24.091 44.341C23.669 44.7629 23.0967 45 22.5 45ZM49.5 45C48.9033 45 48.331 44.7629 47.909 44.341C47.4871 43.919 47.25 43.3467 47.25 42.75C47.25 42.1533 47.4871 41.581 47.909 41.159C48.331 40.7371 48.9033 40.5 49.5 40.5H54C54.5967 40.5 55.169 40.7371 55.591 41.159C56.0129 41.581 56.25 42.1533 56.25 42.75C56.25 43.3467 56.0129 43.919 55.591 44.341C55.169 44.7629 54.5967 45 54 45H49.5Z" fill="black"/>
</svg>
