<svg width="96" height="96" viewBox="0 0 96 96" fill="none" xmlns="http://www.w3.org/2000/svg">
<path d="M72.6617 14.1634L77.7977 8.96229C78.1153 8.63981 78.4936 8.38341 78.9108 8.20787C79.328 8.03233 79.7758 7.94114 80.2284 7.93954C80.6811 7.93795 81.1295 8.02599 81.5479 8.19858C81.9663 8.37118 82.3464 8.62491 82.6663 8.94515L86.7326 13.0183C87.3735 13.6584 87.735 14.5261 87.7382 15.4319C87.7414 16.3377 87.386 17.2079 86.7497 17.8526L81.5795 23.0846L72.6617 14.1634ZM69.048 17.8286L54.6686 32.3897L54.0137 31.7314C48.7132 26.4309 39.7783 27.8811 36.4252 34.584L34.6766 38.0846C34.3687 38.7011 33.8666 39.1993 33.2476 39.5022C32.6287 39.8052 31.9272 39.8962 31.2515 39.7611L30.9463 39.6994C27.3913 38.9887 23.7077 39.2982 20.3211 40.5923C16.9345 41.8864 13.9832 44.1122 11.808 47.0126C8.23178 51.7809 6.49558 57.6793 6.91818 63.6248C7.34079 69.5702 9.89384 75.1637 14.1086 79.3783L16.6252 81.8914C20.8402 86.1057 26.4339 88.6581 32.3793 89.0801C38.3248 89.502 44.2229 87.7653 48.9909 84.1886C51.8901 82.0133 54.1148 79.0623 55.4083 75.6765C56.7017 72.2906 57.0111 68.6079 56.3006 65.0537L56.2423 64.7486C56.1078 64.0737 56.1987 63.3733 56.501 62.7551C56.8032 62.1369 57.3002 61.6351 57.9155 61.3269L61.416 59.5749C68.1189 56.2217 69.5692 47.2869 64.272 41.9863L63.5863 41.3074L77.9657 26.7429L69.048 17.8286ZM36.2949 59.7051C35.64 59.0726 35.1176 58.3159 34.7582 57.4793C34.3988 56.6427 34.2096 55.743 34.2017 54.8325C34.1938 53.922 34.3673 53.019 34.7121 52.1763C35.0569 51.3336 35.566 50.568 36.2099 49.9242C36.8537 49.2803 37.6193 48.7712 38.4621 48.4264C39.3048 48.0816 40.2077 47.9081 41.1182 47.916C42.0287 47.9239 42.9285 48.1131 43.7651 48.4725C44.6017 48.8318 45.3583 49.3542 45.9909 50.0091C47.24 51.3024 47.9311 53.0345 47.9155 54.8325C47.8999 56.6304 47.1787 58.3502 45.9073 59.6216C44.636 60.893 42.9161 61.6141 41.1182 61.6298C39.3203 61.6454 37.5882 60.9542 36.2949 59.7051Z" fill="black"/>
</svg>
