<svg width="73" height="73" viewBox="0 0 73 73" fill="none" xmlns="http://www.w3.org/2000/svg">
<path d="M20.36 33.12C24.68 41.61 31.64 48.54 40.13 52.89L46.73 46.29C47.54 45.48 48.74 45.21 49.79 45.57C53.15 46.68 56.78 47.28 60.5 47.28C62.15 47.28 63.5 48.63 63.5 50.28V60.75C63.5 62.4 62.15 63.75 60.5 63.75C32.33 63.75 9.5 40.92 9.5 12.75C9.5 11.1 10.85 9.75 12.5 9.75H23C24.65 9.75 26 11.1 26 12.75C26 16.5 26.6 20.1 27.71 23.46C28.04 24.51 27.8 25.68 26.96 26.52L20.36 33.12Z" fill="black"/>
</svg>
