<svg width="40" height="40" viewBox="0 0 40 40" fill="none" xmlns="http://www.w3.org/2000/svg">
<path d="M22.5 35C25.4667 35 28.3668 34.1203 30.8336 32.472C33.3003 30.8238 35.2229 28.4811 36.3582 25.7403C37.4935 22.9994 37.7906 19.9834 37.2118 17.0737C36.633 14.1639 35.2044 11.4912 33.1066 9.3934C31.0088 7.29562 28.3361 5.86701 25.4264 5.28823C22.5166 4.70945 19.5006 5.0065 16.7597 6.14181C14.0189 7.27713 11.6762 9.19972 10.028 11.6665C8.37973 14.1332 7.5 17.0333 7.5 20V27.75L3 23.25L1.25 25L8.75 32.5L16.25 25L14.5 23.25L10 27.75V20C10 17.5277 10.7331 15.111 12.1066 13.0554C13.4801 10.9998 15.4324 9.39761 17.7165 8.45151C20.0005 7.50542 22.5139 7.25788 24.9386 7.74019C27.3634 8.22251 29.5907 9.41302 31.3388 11.1612C33.087 12.9093 34.2775 15.1366 34.7598 17.5614C35.2421 19.9861 34.9946 22.4995 34.0485 24.7836C33.1024 27.0676 31.5002 29.0199 29.4446 30.3934C27.389 31.7669 24.9723 32.5 22.5 32.5V35Z" fill="white"/>
</svg>
