<svg width="96" height="96" viewBox="0 0 96 96" fill="none" xmlns="http://www.w3.org/2000/svg">
<path d="M25 35C25 22.85 34.85 13 47 13C59.15 13 69 22.85 69 35C69 37.948 68.42 40.76 67.368 43.328L67.75 43.41C69.2639 43.7338 70.7207 44.2826 72.072 45.038C73.316 41.934 74 38.548 74 35C74 20.088 61.912 8 47 8C32.088 8 20 20.088 20 35C20 40.288 21.52 45.22 24.148 49.386C25.7387 48.608 27.457 48.1242 29.22 47.958C26.471 44.1974 24.9928 39.6582 25 35ZM65 35C65 37.666 64.42 40.196 63.38 42.472L60 41.748V35C59.9888 33.2928 59.6415 31.6045 58.9779 30.0316C58.3143 28.4586 57.3473 27.0318 56.1323 25.8325C54.9172 24.6332 53.4779 23.685 51.8964 23.042C50.3148 22.399 48.6222 22.0738 46.915 22.085C45.2078 22.0962 43.5195 22.4435 41.9466 23.1071C40.3736 23.7707 38.9468 24.7377 37.7475 25.9527C36.5482 27.1678 35.6 28.6071 34.957 30.1886C34.314 31.7701 33.9888 33.4628 34 35.17V47.45C31.964 45.324 30.4804 42.7312 29.6794 39.8986C28.8783 37.066 28.7841 34.0802 29.4051 31.2028C30.0261 28.3254 31.3433 25.6442 33.2413 23.3942C35.1393 21.1441 37.5601 19.3939 40.2917 18.2968C43.0233 17.1998 45.9823 16.7894 48.9094 17.1017C51.8364 17.4139 54.6422 18.4393 57.0809 20.0879C59.5196 21.7365 61.5168 23.958 62.8974 26.5578C64.278 29.1576 65 32.0563 65 35ZM47 26C44.613 26 42.3239 26.9482 40.636 28.636C38.9482 30.3239 38 32.6131 38 35V53.936L34.26 52.56C27.984 50.25 21.154 54.216 20.05 60.814C19.9111 61.658 20.0551 62.5243 20.4595 63.2781C20.8638 64.0319 21.506 64.6309 22.286 64.982C36.872 71.556 43.076 77.736 45.238 82.362C46.216 84.456 48.484 86.288 51.304 85.958L63.788 84.496C65.469 84.2994 67.053 83.6054 68.3372 82.503C69.6213 81.4005 70.5471 79.9398 70.996 78.308L75.586 61.614C76.0008 60.1047 76.1032 58.5266 75.8869 56.9764C75.6705 55.4262 75.14 53.9365 74.3277 52.5984C73.5155 51.2604 72.4386 50.1023 71.1632 49.195C69.8877 48.2878 68.4404 47.6504 66.91 47.322L56 44.98V35C56 32.6131 55.0518 30.3239 53.364 28.636C51.6761 26.9482 49.3869 26 47 26Z" fill="black" fill-opacity="0.14"/>
</svg>
